<?xml version="1.0" encoding="UTF-8"?>
<!DOCTYPE svg PUBLIC "-//W3C//DTD SVG 1.1//EN" "http://www.w3.org/Graphics/SVG/1.1/DTD/svg11.dtd">
<!-- Creator: CorelDRAW -->
<svg xmlns="http://www.w3.org/2000/svg" xml:space="preserve" width="114.595mm" height="75.7768mm" version="1.1" style="shape-rendering:geometricPrecision; text-rendering:geometricPrecision; image-rendering:optimizeQuality; fill-rule:evenodd; clip-rule:evenodd"
viewBox="0 0 1590.49 1051.72"
 xmlns:xlink="http://www.w3.org/1999/xlink"
 xmlns:xodm="http://www.corel.com/coreldraw/odm/2003">
 <defs>
  <style type="text/css">
   <![CDATA[
    .fil5 {fill:#CC7087}
    .fil1 {fill:blue;fill-rule:nonzero}
    .fil4 {fill:#00AEB5;fill-rule:nonzero}
    .fil0 {fill:#2B30C0;fill-rule:nonzero}
    .fil6 {fill:#CC7087;fill-rule:nonzero}
    .fil2 {fill:#FEB800;fill-rule:nonzero}
    .fil3 {fill:white;fill-rule:nonzero}
   ]]>
  </style>
 </defs>
 <g id="Capa_x0020_1">
  <metadata id="CorelCorpID_0Corel-Layer"/>
  <g id="_105553169645408">
   <path class="fil0" d="M1412.18 459.14c9.36,-13.93 22.52,-34.96 37.14,-62.66 -4.85,-7.51 -7.28,-17.95 -7.28,-31.33l0 -253.15c0,-30.48 12.59,-45.73 37.77,-45.73 25.18,0 37.77,15.24 37.77,45.73l0 114.33c17.07,-58.69 30.8,-126.75 36.56,-203.25 -18.43,-15.38 -43.2,-23.07 -74.34,-23.07 -35.79,0 -63.18,10.16 -82.18,30.48 -19,20.32 -28.5,49.04 -28.5,86.15l0 243.87c0,37.11 9.5,65.83 28.5,86.15 4.4,4.7 9.24,8.86 14.54,12.48z"/>
   <path class="fil1" d="M1247.21 143.41c25.59,-24.29 50.29,-52.96 72.9,-86.74l0 -50.04 -72.9 0 0 136.79z"/>
   <path class="fil2" d="M483.77 199.06c15.93,-3.51 41.36,-10.11 72.9,-20.28l0 -105.88 34.46 0c11.93,0 20.87,3.31 26.84,9.94 5.96,6.63 8.95,17.89 8.95,33.8l0 36.89c23.14,-9.18 47.68,-19.78 72.9,-31.92l0 -0.33c0,-37.55 -9.06,-66.05 -27.17,-85.49 -18.11,-19.44 -45.28,-29.16 -81.51,-29.16l-105.36 0 -2 4.06 0 188.37zm255.8 -97.65c48.12,-25.78 97.18,-57.14 142.23,-94.78l-142.23 0 0 94.78z"/>
   <path class="fil3" d="M979.48 1051.72c-35.34,0 -62.07,-10.05 -80.19,-30.15 -6.84,-7.59 -12.39,-16.43 -16.65,-26.52 19.41,-9.32 39.37,-23.44 59.44,-40.96 3.49,20.9 15.73,31.36 36.73,31.36 12.37,0 21.76,-3.65 28.17,-10.94 6.41,-7.29 9.61,-19.11 9.61,-35.45 0,-18.5 -4,-34.91 -12.01,-49.21 16.38,-19.15 32.52,-39.67 48.2,-60.84 8.16,9.94 14.65,19.45 19.47,28.53 11.49,21.65 17.23,47.05 17.23,76.21 0,37.99 -9.39,67.15 -28.16,87.48 -18.78,20.32 -46.06,30.48 -81.84,30.48zm-98.72 -61.43c-0.2,-0.54 -0.39,-1.08 -0.59,-1.63 0.19,0.55 0.39,1.09 0.59,1.63zm-4.11 -13.57c-0.28,-1.16 -0.55,-2.34 -0.81,-3.53 0.26,1.19 0.53,2.37 0.81,3.53zm359.95 75c-35.78,0 -63.18,-10.16 -82.17,-30.48 -19,-20.32 -28.5,-49.04 -28.5,-86.15l0 -213.38c37.02,-58.37 67.39,-112.01 86.07,-145.32l-1.12 0.18c8.03,-1.32 16.61,-1.98 25.72,-1.98 35.79,0 63.18,10.16 82.17,30.48 19,20.32 28.5,49.04 28.5,86.15l0 243.87c0,37.11 -9.5,65.83 -28.5,86.15 -19,20.32 -46.39,30.48 -82.17,30.48zm-60.44 -463.56c0.49,-0.27 0.98,-0.53 1.47,-0.79 -0.49,0.26 -0.98,0.52 -1.47,0.79zm6.28 -3.16c1.19,-0.54 2.4,-1.07 3.62,-1.57 -1.23,0.5 -2.43,1.02 -3.62,1.57zm3.63 -1.57c1.23,-0.5 2.47,-0.99 3.74,-1.44 -1.26,0.46 -2.51,0.94 -3.74,1.44zm3.93 -1.51c1.24,-0.45 2.5,-0.88 3.77,-1.29 -1.28,0.41 -2.53,0.84 -3.77,1.29zm3.94 -1.34c0.65,-0.21 1.31,-0.41 1.97,-0.61l-1.97 0.61zm2.99 -0.9c2.4,-0.69 4.85,-1.3 7.36,-1.85 -2.51,0.55 -4.96,1.17 -7.36,1.85zm8.44 -2.08c1.8,-0.38 3.64,-0.72 5.5,-1.03 -1.86,0.31 -3.7,0.65 -5.5,1.03zm31.23 407.87c25.18,0 37.77,-15.24 37.77,-45.73l0 -253.15c0,-30.48 -12.59,-45.73 -37.77,-45.73 -25.18,0 -37.78,15.24 -37.78,45.73l0 253.15c0,30.49 12.59,45.73 37.78,45.73zm232.61 -66.68l0 60.05 45.01 0c15.68,17.93 32.87,34.84 51.73,50.21 7.75,6.32 14.8,11.6 21.28,16.06l-190.92 0 0 -280.59c16.84,49.6 40.33,103.72 72.9,154.27z"/>
   <path class="fil4" d="M1396.32 764.51c16.84,49.6 40.33,103.72 72.9,154.27l0 -337.57 -72.9 0 0 183.3zm117.91 214.31c15.68,17.93 32.87,34.84 51.73,50.21 7.75,6.32 14.8,11.6 21.28,16.06l1.93 0 0 -66.27 -74.94 0z"/>
   <path class="fil2" d="M1212.01 576.39c-18.68,33.31 -49.05,86.95 -86.07,145.32l0 -30.49c0,-37.11 9.5,-65.83 28.5,-86.15 14.38,-15.38 33.57,-24.94 57.57,-28.68zm-159.22 252.64c-15.68,21.16 -31.83,41.69 -48.2,60.84 -0.4,-0.72 -0.82,-1.44 -1.24,-2.15 -8.84,-14.8 -25.18,-32.58 -49.04,-53.35 -30.04,-26.51 -51.03,-50.47 -62.96,-71.9 -11.93,-21.43 -17.89,-45.62 -17.89,-72.56 0,-36.67 9.28,-65.05 27.83,-85.16 18.56,-20.1 45.5,-30.15 80.85,-30.15 34.9,0 61.3,10.05 79.19,30.15 17.89,20.1 26.84,48.93 26.84,86.48l0 19.22 -68.92 0 0 -23.86c0,-15.9 -3.09,-27.5 -9.28,-34.79 -6.19,-7.29 -15.24,-10.93 -27.17,-10.93 -24.3,0 -36.45,14.8 -36.45,44.4 0,16.79 4.53,32.47 13.59,47.05 9.06,14.58 25.51,32.25 49.37,53.01 17.69,15.39 32.19,29.96 43.48,43.71zm-110.7 125.07c-20.07,17.52 -40.03,31.63 -59.44,40.96 -7.01,-16.61 -10.52,-36.6 -10.52,-59.97l0 -26.51 68.92 0 0 31.81c0,4.98 0.35,9.55 1.04,13.71z"/>
   <path class="fil0" d="M-0 581.21l111.33 0c36.23,0 63.4,9.72 81.51,29.16 18.11,19.44 27.17,47.93 27.17,85.49l0 146.83c-27.13,-17.54 -51.34,-35.89 -72.9,-54.59l0 -95.56c0,-15.9 -3.2,-27.39 -9.61,-34.46 -6.41,-7.07 -15.57,-10.6 -27.5,-10.6l-37.11 0 0 63.63c-35.17,-43.91 -58.13,-85.94 -72.9,-119.66l0 -10.24zm269.05 290.4c22.57,12.12 46.83,23.64 72.9,34.36l0 -69.62 100.07 0 0 -66.27 -100.07 0 0 -122.6 125.91 0 0 -66.27 -198.81 0 0 290.4zm240.56 85.05c23.29,4.87 47.56,9.18 72.9,12.82l0 -388.27 -72.9 0 0 375.44z"/>
   <path class="fil5" d="M-0 32.43c20.97,28.61 45.35,59.08 72.9,89.31l0 -115.12 -72.9 0 0 25.81zm127.24 144.26c20,18.58 41.21,36.54 63.62,53.34l0 -110.75 1.33 0 18.93 125.39c18.74,13.03 38.25,25.16 58.48,36.15l-38.31 -274.21 -104.04 0 0 170.07zm158.64 112.67c14.52,7.3 29.39,14 44.62,19.96l28.69 -190.04 1.33 0 0 200.67c22.29,7.1 45.28,12.61 68.92,16.27l0 -329.6 -104.04 0 -39.5 282.74z"/>
   <path class="fil3" d="M72.9 121.75l0 348.77 -72.9 0 0 -438.09c20.97,28.61 45.35,59.08 72.9,89.31zm158.39 -115.12l46.39 332.01 1.32 0 46.39 -332.01 -39.5 282.74c14.52,7.3 29.39,14 44.62,19.96l28.69 -190.04 -53.02 351.23 -60.97 0 -34.09 -225.84c18.74,13.03 38.25,25.16 58.48,36.15l-38.31 -274.21zm198.15 329.6l0 134.3 -68.92 0 0 -150.56c22.29,7.1 45.28,12.61 68.92,16.27zm-238.57 -106.19l0 240.49 -63.62 0 0 -293.82c20,18.58 41.21,36.54 63.62,53.34z"/>
   <path class="fil4" d="M483.77 6.63l2 0 -2 4.06 0 -4.06zm216.04 114.98l0 45.4c0,37.55 -9.06,66.05 -27.17,85.49 -18.11,19.44 -45.28,29.16 -81.51,29.16l-34.46 0 0 188.87 -72.9 0 0 -271.46c15.93,-3.51 41.36,-10.11 72.9,-20.28l0 36.6 34.46 0c11.93,0 20.87,-3.31 26.84,-9.94 5.96,-6.63 8.95,-17.89 8.95,-33.8l0 -18.12c23.14,-9.18 47.68,-19.78 72.9,-31.92zm181.99 -114.98l56.58 0 0 66.27 -125.91 0 0 122.6 100.07 0 0 66.27 -100.07 0 0 142.48 125.91 0 0 66.27 -198.81 0 0 -369.11c48.12,-25.78 97.18,-57.14 142.23,-94.78z"/>
   <path class="fil0" d="M1188.55 191.09c-7.63,20.42 -20.99,34.49 -40.09,42.18l0 1.33c17.67,5.3 30.15,16.12 37.44,32.47 7.29,16.35 10.94,38.22 10.94,65.61l0 81.51c0,13.25 0.44,23.97 1.33,32.14 0.88,8.17 3.09,16.24 6.63,24.19l-74.22 0c-2.65,-7.51 -4.42,-14.58 -5.3,-21.21 -0.88,-6.63 -1.33,-18.56 -1.33,-35.79l0 -84.83c0,-21.21 -3.42,-36.01 -10.27,-44.4 -6.85,-8.4 -18.67,-12.59 -35.45,-12.59l-25.18 0 0 198.81 -72.9 0 0 -195.5c44.43,-6.98 126.28,-26.98 208.41,-83.92zm58.66 -184.47l72.9 0 0 463.89 -72.9 0 0 -463.89z"/>
   <path class="fil4" d="M1479.82 477.14c-27.5,0 -50.05,-6 -67.63,-18.01 9.36,-13.93 22.52,-34.96 37.14,-62.66 6.2,9.6 16.37,14.39 30.5,14.39 25.18,0 37.77,-15.24 37.77,-45.73l0 -138.83c17.07,-58.69 30.8,-126.75 36.56,-203.25 2.76,2.3 5.37,4.77 7.84,7.41 19,20.32 28.5,49.04 28.5,86.15l0 243.87c0,37.11 -9.5,65.83 -28.5,86.15 -19,20.32 -46.39,30.48 -82.17,30.48zm-37.77 -112c0,1.41 0.03,2.79 0.08,4.14 -0.05,-1.35 -0.08,-2.73 -0.08,-4.14z"/>
   <path class="fil6" d="M220.02 842.69l0 87.76c0,37.55 -9.06,66.05 -27.17,85.49 -18.11,19.44 -45.29,29.16 -81.51,29.16l-111.33 0 0 -453.65c14.77,33.72 37.73,75.74 72.9,119.66l0 267.72 37.11 0c11.93,0 21.1,-3.54 27.5,-10.6 6.41,-7.07 9.61,-18.56 9.61,-34.46l0 -145.67c21.56,18.7 45.76,37.05 72.9,54.59zm121.94 63.27l0 72.86 125.91 0 0 66.27 -198.81 0 0 -173.49c22.57,12.12 46.83,23.64 72.9,34.36zm240.56 63.51l0 9.35 119.95 0 0 66.27 -192.85 0 0 -88.45c23.29,4.87 47.56,9.18 72.9,12.82z"/>
   <path class="fil2" d="M980.14 275.01c44.43,-6.98 126.28,-26.98 208.41,-83.92 5.08,-13.6 7.63,-30.03 7.63,-49.28l0 -28.5c0,-36.23 -8.61,-63.07 -25.85,-80.52 -17.23,-17.45 -44.62,-26.18 -82.17,-26.18l-108.02 0 0 268.39zm142.99 -165.28c0.1,2.02 0.15,4.12 0.15,6.29l0 35.78c0,17.67 -3.64,30.26 -10.93,37.77 -7.29,7.51 -18.22,11.27 -32.8,11.27l-26.51 0 0 -132.54 33.14 0c12.81,0 22.2,3.76 28.17,11.27 0.77,0.98 1.5,2.03 2.17,3.16 3.84,6.46 6.05,15.45 6.62,27z"/>
  </g>
 </g>
</svg>
